<svg width="362" height="70" viewBox="0 0 362 70" fill="none" xmlns="http://www.w3.org/2000/svg">
<path d="M98.36 43.356L91.052 35.4L98.36 27.444H106.1L98.756 35.4L106.1 43.356H98.36ZM120.528 22.728C123.192 22.728 125.52 23.256 127.512 24.312C129.504 25.368 131.04 26.856 132.12 28.776C133.224 30.672 133.776 32.868 133.776 35.364C133.776 37.836 133.224 40.032 132.12 41.952C131.04 43.872 129.492 45.36 127.476 46.416C125.484 47.472 123.168 48 120.528 48H111.06V22.728H120.528ZM120.132 42.672C122.46 42.672 124.272 42.036 125.568 40.764C126.864 39.492 127.512 37.692 127.512 35.364C127.512 33.036 126.864 31.224 125.568 29.928C124.272 28.632 122.46 27.984 120.132 27.984H117.216V42.672H120.132ZM156.152 37.632C156.152 38.208 156.116 38.808 156.044 39.432H142.112C142.208 40.68 142.604 41.64 143.3 42.312C144.02 42.96 144.896 43.284 145.928 43.284C147.464 43.284 148.532 42.636 149.132 41.34H155.684C155.348 42.66 154.736 43.848 153.848 44.904C152.984 45.96 151.892 46.788 150.572 47.388C149.252 47.988 147.776 48.288 146.144 48.288C144.176 48.288 142.424 47.868 140.888 47.028C139.352 46.188 138.152 44.988 137.288 43.428C136.424 41.868 135.992 40.044 135.992 37.956C135.992 35.868 136.412 34.044 137.252 32.484C138.116 30.924 139.316 29.724 140.852 28.884C142.388 28.044 144.152 27.624 146.144 27.624C148.088 27.624 149.816 28.032 151.328 28.848C152.84 29.664 154.016 30.828 154.856 32.34C155.72 33.852 156.152 35.616 156.152 37.632ZM149.852 36.012C149.852 34.956 149.492 34.116 148.772 33.492C148.052 32.868 147.152 32.556 146.072 32.556C145.04 32.556 144.164 32.856 143.444 33.456C142.748 34.056 142.316 34.908 142.148 36.012H149.852ZM168.436 42.24L172.792 27.912H179.344L172.216 48H164.62L157.492 27.912H164.08L168.436 42.24ZM341.198 13.8L331.55 54.732H325.61L335.258 13.8H341.198ZM343.831 27.444H351.571L358.879 35.4L351.571 43.356H343.831L351.175 35.4L343.831 27.444Z" fill="#3E4347"/>
<path d="M198.711 30.72C198.255 29.88 197.595 29.244 196.731 28.812C195.891 28.356 194.895 28.128 193.743 28.128C191.751 28.128 190.155 28.788 188.955 30.108C187.755 31.404 187.155 33.144 187.155 35.328C187.155 37.656 187.779 39.48 189.027 40.8C190.299 42.096 192.039 42.744 194.247 42.744C195.759 42.744 197.031 42.36 198.063 41.592C199.119 40.824 199.887 39.72 200.367 38.28H192.555V33.744H205.947V39.468C205.491 41.004 204.711 42.432 203.607 43.752C202.527 45.072 201.147 46.14 199.467 46.956C197.787 47.772 195.891 48.18 193.779 48.18C191.283 48.18 189.051 47.64 187.083 46.56C185.139 45.456 183.615 43.932 182.511 41.988C181.431 40.044 180.891 37.824 180.891 35.328C180.891 32.832 181.431 30.612 182.511 28.668C183.615 26.7 185.139 25.176 187.083 24.096C189.027 22.992 191.247 22.44 193.743 22.44C196.767 22.44 199.311 23.172 201.375 24.636C203.463 26.1 204.843 28.128 205.515 30.72H198.711ZM208.133 37.92C208.133 35.856 208.517 34.044 209.285 32.484C210.077 30.924 211.145 29.724 212.489 28.884C213.833 28.044 215.333 27.624 216.989 27.624C218.405 27.624 219.641 27.912 220.697 28.488C221.777 29.064 222.605 29.82 223.181 30.756V27.912H229.337V48H223.181V45.156C222.581 46.092 221.741 46.848 220.661 47.424C219.605 48 218.369 48.288 216.953 48.288C215.321 48.288 213.833 47.868 212.489 47.028C211.145 46.164 210.077 44.952 209.285 43.392C208.517 41.808 208.133 39.984 208.133 37.92ZM223.181 37.956C223.181 36.42 222.749 35.208 221.885 34.32C221.045 33.432 220.013 32.988 218.789 32.988C217.565 32.988 216.521 33.432 215.657 34.32C214.817 35.184 214.397 36.384 214.397 37.92C214.397 39.456 214.817 40.68 215.657 41.592C216.521 42.48 217.565 42.924 218.789 42.924C220.013 42.924 221.045 42.48 221.885 41.592C222.749 40.704 223.181 39.492 223.181 37.956ZM246.067 48L239.947 39.576V48H233.791V21.36H239.947V36.084L246.031 27.912H253.627L245.275 37.992L253.699 48H246.067ZM275.881 27.912V48H269.725V45.264C269.101 46.152 268.249 46.872 267.169 47.424C266.113 47.952 264.937 48.216 263.641 48.216C262.105 48.216 260.749 47.88 259.573 47.208C258.397 46.512 257.485 45.516 256.837 44.22C256.189 42.924 255.865 41.4 255.865 39.648V27.912H261.985V38.82C261.985 40.164 262.333 41.208 263.029 41.952C263.725 42.696 264.661 43.068 265.837 43.068C267.037 43.068 267.985 42.696 268.681 41.952C269.377 41.208 269.725 40.164 269.725 38.82V27.912H275.881ZM300.822 27.912L288.222 57.54H281.598L286.206 47.316L278.034 27.912H284.91L289.554 40.476L294.162 27.912H300.822ZM301.824 37.92C301.824 35.856 302.208 34.044 302.976 32.484C303.768 30.924 304.836 29.724 306.18 28.884C307.524 28.044 309.024 27.624 310.68 27.624C312.096 27.624 313.332 27.912 314.388 28.488C315.468 29.064 316.296 29.82 316.872 30.756V27.912H323.028V48H316.872V45.156C316.272 46.092 315.432 46.848 314.352 47.424C313.296 48 312.06 48.288 310.644 48.288C309.012 48.288 307.524 47.868 306.18 47.028C304.836 46.164 303.768 44.952 302.976 43.392C302.208 41.808 301.824 39.984 301.824 37.92ZM316.872 37.956C316.872 36.42 316.44 35.208 315.576 34.32C314.736 33.432 313.704 32.988 312.48 32.988C311.256 32.988 310.212 33.432 309.348 34.32C308.508 35.184 308.088 36.384 308.088 37.92C308.088 39.456 308.508 40.68 309.348 41.592C310.212 42.48 311.256 42.924 312.48 42.924C313.704 42.924 314.736 42.48 315.576 41.592C316.44 40.704 316.872 39.492 316.872 37.956Z" fill="#4BC9EB"/>
<g clip-path="url(#clip0)">
<path d="M35.0001 70.0001C54.0741 70.0001 69.5367 54.5375 69.5367 35.4635C69.5367 16.3894 54.0741 0.92688 35.0001 0.92688C15.926 0.92688 0.463486 16.3894 0.463486 35.4635C0.463486 54.5375 15.926 70.0001 35.0001 70.0001Z" fill="#FFD93B"/>
<path d="M57.3281 44.0013C55.32 54.5145 46.0821 62.4355 35.0088 62.4355C23.9137 62.4355 14.6758 54.5145 12.6895 44.0013C12.4949 42.9863 13.4442 42.1222 14.4374 42.4044C28.1225 46.1823 41.8295 46.1604 55.5803 42.3825C56.5734 42.1222 57.5228 42.9863 57.3281 44.0013Z" fill="#3E4347"/>
<path d="M16.7868 42.9688C20.0746 49.2797 26.5934 51.1348 34.9191 51.1348C43.2142 51.1348 49.7046 49.2863 53.0056 43.0191C40.9129 45.9241 28.8378 45.9153 16.7868 42.9688Z" fill="white"/>
<path d="M69.5367 35.4634C69.5367 54.5451 54.0709 70 35.0001 70C24.1434 70 14.4505 64.9927 8.11543 57.1461C14.0414 61.9389 21.584 64.798 29.7981 64.798C48.869 64.798 64.3347 49.3432 64.3347 30.2614C64.3347 22.0473 61.4756 14.5025 56.6828 8.57874C64.5185 14.9138 69.5367 24.6045 69.5367 35.4634Z" fill="#F4C534"/>
<path d="M31.7319 21.9642C31.7319 29.463 22.844 38.7731 13.7505 35.2752C9.5942 33.6565 6.58198 29.7233 6.11167 25.2608C5.68072 20.3454 8.18106 15.6969 12.4817 13.3825C19.5081 9.81468 31.7319 13.5947 31.7319 21.9642Z" fill="white"/>
<path d="M56.2672 35.2752C51.8134 36.988 47.3093 35.7608 43.713 32.5911C37.9401 27.5489 35.4529 18.9235 43.0173 14.3034C47.3377 11.6828 53.4212 11.2934 57.4769 13.3825C66.5551 18.2213 65.9732 31.4974 56.2672 35.2752Z" fill="white"/>
<path d="M66.8154 11.3197H65.6691C62.495 11.3197 59.2794 11.136 56.2081 10.3572C50.5359 8.9025 43.8377 10.6438 40.0904 14.5354C38.8829 15.7648 37.1832 16.3576 35.4616 16.3576H34.6019C32.8607 16.3576 31.1413 15.7626 29.9338 14.5157C26.1231 10.6241 19.3834 8.9025 13.7724 10.3572C10.7208 11.136 7.54668 11.3197 4.41415 11.3197H3.18476C2.42788 11.3197 1.81319 11.9344 1.81319 12.7132V16.9941C1.81319 17.5476 2.18069 17.9763 2.67288 18.2235C3.30726 18.5495 3.73821 19.2057 3.73821 19.9648C3.73821 20.1245 3.71852 20.3104 3.65508 20.4745C-0.0921447 34.3587 16.2508 45.4997 27.8206 34.339C30.2575 31.924 32.0185 29.1371 32.8169 25.9848C33.0619 25.0027 33.9851 24.3661 35.0088 24.3661C36.0129 24.3661 36.9535 25.0005 37.1788 25.9848C37.9773 29.1393 39.7382 31.924 42.1751 34.339C53.6859 45.4604 70.0879 34.4615 66.3407 20.4548C66.0957 19.5338 66.5463 18.6326 67.3229 18.2235C67.8151 17.9763 68.1826 17.5257 68.1826 16.9744V12.7132C68.187 11.9322 67.5723 11.3197 66.8154 11.3197ZM25.6112 31.819C17.6662 38.8431 7.9995 33.2518 7.1398 25.1427C6.73073 20.6364 9.04513 16.3991 12.9761 14.2882C19.2237 11.0922 30.7125 14.3691 30.7125 21.9686C30.7103 25.7573 28.4156 29.3821 25.6112 31.819ZM62.8625 25.1427C62.0028 33.2518 52.3559 38.8431 44.3889 31.819C41.6042 29.3799 39.3095 25.7552 39.3095 21.9686C39.3095 14.3691 50.7984 11.0944 57.0044 14.2882C60.9572 16.3991 63.2716 20.6364 62.8625 25.1427Z" fill="#3E4347"/>
<path d="M49.6959 29.7692C52.6292 29.7692 55.0072 27.3913 55.0072 24.4579C55.0072 21.5246 52.6292 19.1466 49.6959 19.1466C46.7625 19.1466 44.3846 21.5246 44.3846 24.4579C44.3846 27.3913 46.7625 29.7692 49.6959 29.7692Z" fill="#3E4347"/>
<path d="M52.4919 21.6511C51.8555 21.0146 50.9794 20.8588 50.5352 21.303C50.091 21.7473 50.2468 22.6233 50.8832 23.2597C51.5197 23.8962 52.3957 24.052 52.8399 23.6078C53.2841 23.1636 53.1283 22.2875 52.4919 21.6511Z" fill="white"/>
<path d="M20.8118 29.7693C23.7452 29.7693 26.1231 27.3914 26.1231 24.458C26.1231 21.5247 23.7452 19.1467 20.8118 19.1467C17.8785 19.1467 15.5005 21.5247 15.5005 24.458C15.5005 27.3914 17.8785 29.7693 20.8118 29.7693Z" fill="#3E4347"/>
<path d="M23.6087 21.65C22.9723 21.0135 22.0962 20.8577 21.652 21.3019C21.2078 21.7462 21.3636 22.6222 22 23.2586C22.6365 23.8951 23.5125 24.0509 23.9567 23.6067C24.4009 23.1625 24.2451 22.2864 23.6087 21.65Z" fill="white"/>
<path d="M26.5934 3.54531C26.6787 3.27406 14.0677 3.61094 10.3205 10.6176C9.36888 10.6044 18.6024 -7.43823 26.5934 3.54531Z" fill="#3E4347"/>
<path d="M43.4067 3.54531C43.3214 3.27406 55.9325 3.61094 59.6797 10.6176C60.6313 10.6044 51.3977 -7.43823 43.4067 3.54531Z" fill="#3E4347"/>
<path d="M33.0904 55.0024C25.8737 55.0024 22.7543 51.0911 21.3127 55.2343C21.0349 56.0305 20.9584 56.829 21.024 57.6143C24.8806 60.6287 29.7281 62.4356 35.0088 62.4356C40.2873 62.4356 45.1348 60.6221 48.9958 57.599C49.0593 56.818 48.9805 56.024 48.7049 55.2321C47.2633 51.0911 40.307 55.0024 33.0904 55.0024Z" fill="#E24B4B"/>
</g>
<defs>
<clipPath id="clip0">
<rect width="70" height="70" fill="white"/>
</clipPath>
</defs>
</svg>
